<?xml version="1.0" encoding="UTF-8"?>
<svg version="1.1" xmlns="http://www.w3.org/2000/svg" width="2015" height="2015">
<path d="M0 0 C0.62036133 0.33725098 1.24072266 0.67450195 1.87988281 1.02197266 C9.40456686 5.14430996 16.32192727 9.79802005 23 15.1875 C23.57943359 15.65502686 24.15886719 16.12255371 24.75585938 16.60424805 C37.09935416 26.861025 48.47250732 38.32271917 59.80078125 49.67138672 C61.10175953 50.9710048 62.40294929 52.2704112 63.70433044 53.56962585 C67.1875206 57.04831832 70.66761439 60.53009207 74.1469574 64.01263189 C77.81097901 67.67921345 81.47747179 71.34332269 85.14355469 75.00784302 C91.2877661 81.15024485 97.42988775 87.2947304 103.57080078 93.44042969 C110.65420836 100.52929456 117.74123383 107.61452719 124.83011532 114.69791782 C130.94527421 120.8085312 137.05847301 126.92110037 143.17005253 133.0352937 C146.80810739 136.67490124 150.44681958 140.31384472 154.08731079 143.95101547 C157.50422809 147.36503252 160.9186677 150.78150879 164.33125496 154.1998539 C165.57880359 155.44871787 166.82719111 156.69674452 168.07650566 157.94384193 C173.65416549 163.51251882 179.17048882 169.07402618 184.29335785 175.07058525 C187.90566613 179.15441786 191.83616165 182.93849964 195.70800781 186.77392578 C196.66679217 187.72750385 197.62532682 188.68133305 198.58363342 189.63539124 C200.63384027 191.67572678 202.68551102 193.71457438 204.73828888 195.75232315 C207.99683778 198.98758648 211.25031649 202.22791711 214.50286865 205.46920776 C223.74804285 214.68113594 232.99734161 223.88889339 242.25732422 233.0859375 C247.38237169 238.17623571 252.50185792 243.272061 257.61545634 248.37386119 C260.31169635 251.06339424 263.01060799 253.7501101 265.71652985 256.42990494 C287.18400817 277.6955322 287.18400817 277.6955322 296 290 C296.81624059 291.11997472 297.63283355 292.23969272 298.44976807 293.35916138 C320.53810687 323.98341999 330.60052989 359.95343208 325.3515625 397.66015625 C324.54396931 402.20407862 323.38215883 406.59951587 322 411 C321.76394043 411.76489746 321.52788086 412.52979492 321.28466797 413.31787109 C309.73172209 449.6452193 284.86276911 476.3134015 258.46386719 502.66552734 C257.15469155 503.97606224 255.8457278 505.28680883 254.53695679 506.5977478 C251.02302912 510.11618526 247.50600525 513.63151163 243.98822689 517.14609861 C240.28827051 520.84350038 236.59078045 524.54336731 232.8928833 528.24282837 C226.69145131 534.44607193 220.48793117 540.64722137 214.28320312 546.84716797 C207.12508176 553.99983664 199.97058592 561.15611659 192.81793857 568.31425893 C186.65216437 574.48457884 180.48443405 580.65293835 174.31507993 586.8196789 C170.64078974 590.49241589 166.96716479 594.16581142 163.29531097 597.84098434 C159.84684794 601.29234775 156.39592536 604.74123333 152.94313431 608.18826675 C151.6813715 609.44871407 150.4204463 610.71000056 149.16044998 611.97221375 C137.60480781 623.54630321 137.60480781 623.54630321 131.52920914 628.66553688 C124.77715836 634.55770854 120.51070901 641.60461067 118.125 650.125 C117.78156415 660.77151143 122.23361055 670.70803598 126.625 680.1875 C127.19354899 681.43236784 127.7619028 682.67732485 128.33007812 683.92236328 C139.15263188 707.48296703 150.81894488 730.66774006 164 753 C164.49371094 753.84771973 164.98742187 754.69543945 165.49609375 755.56884766 C173.51907796 769.30951055 182.25148893 782.56967179 191.0625 795.8125 C191.60522552 796.62976563 192.14795105 797.44703125 192.7071228 798.2890625 C203.30548157 814.22513177 214.42228656 829.76112221 226 845 C226.7105957 845.94045166 226.7105957 845.94045166 227.43554688 846.89990234 C234.96361336 856.86058804 242.6886552 866.63112036 250.60302734 876.28710938 C252.46514231 878.57033179 254.2958723 880.87780718 256.125 883.1875 C259.61922362 887.57183112 263.23310445 891.84693022 266.8659668 896.11621094 C269.7634946 899.52506718 272.61763123 902.96374861 275.4375 906.4375 C280.33513107 912.45060576 285.38898488 918.32335577 290.45166016 924.19726562 C291.97840691 925.97485913 293.49641708 927.75952015 295.01171875 929.546875 C300.96231182 936.55494128 307.06272294 943.38549935 313.328125 950.11328125 C316.00338777 953.00366017 318.59826954 955.94884884 321.17578125 958.92578125 C324.8932375 963.15269617 328.72997558 967.27298224 332.54296875 971.41357422 C334.00193345 973.00210515 335.45495777 974.59586496 336.90625 976.19140625 C341.27231954 980.98633937 345.66090935 985.72571311 350.29637146 990.26393127 C351.9524288 991.95152296 353.47903856 993.69694804 355.00805664 995.49975586 C359.79359525 1000.99702416 364.96466111 1006.10905324 370.12109375 1011.25390625 C371.19066164 1012.32414967 372.26008121 1013.39454134 373.32936096 1014.46507263 C375.55918224 1016.69635913 377.7907784 1018.92585057 380.02368164 1021.15405273 C382.86564432 1023.99031888 385.70309242 1026.83105231 388.53921413 1029.67315769 C390.74318226 1031.88076333 392.94955619 1034.08595221 395.15663338 1036.29044914 C396.20300449 1037.33615979 397.24865174 1038.38259535 398.29351616 1039.42981148 C403.52701399 1044.67250521 408.78424153 1049.83839884 414.42591858 1054.64610291 C416.38866297 1056.33429635 418.20235435 1058.13815272 420 1060 C423.08583999 1063.12754053 426.281243 1066.03382257 429.61328125 1068.89453125 C432.12007521 1071.1059256 434.5574491 1073.3797846 436.99414062 1075.66772461 C442.59753636 1080.92880763 448.28530733 1085.9512871 454.2890625 1090.7578125 C457.28905961 1093.23907812 460.15130287 1095.84888189 463 1098.5 C467.57924849 1102.75535938 472.29286588 1106.77323156 477.1640625 1110.6953125 C480.25588048 1113.20794695 483.28427573 1115.78658385 486.3125 1118.375 C491.89658494 1123.13021676 497.61994372 1127.68190679 503.40625 1132.1875 C506.46498074 1134.57170715 509.48942322 1136.99582062 512.50732422 1139.43139648 C520.85407728 1146.16226179 529.38323864 1152.61996314 538 1159 C538.7532959 1159.55977539 539.5065918 1160.11955078 540.28271484 1160.69628906 C588.72246124 1196.68699049 638.7594183 1228.60913825 693.17260742 1254.77148438 C694.83529957 1255.57255173 696.49781759 1256.37398061 698.16015625 1257.17578125 C698.97306625 1257.56718292 699.78597626 1257.95858459 700.6235199 1258.36184692 C704.83376163 1260.40493818 708.997451 1262.51004336 713.12060547 1264.72412109 C713.9595787 1265.17442184 714.79855194 1265.6247226 715.66294861 1266.08866882 C717.24012103 1266.94156199 718.81296166 1267.80254335 720.38014221 1268.67366028 C727.04319563 1272.28675816 734.84173499 1276.12115209 742.5625 1274.5625 C743.38878906 1274.41941406 744.21507812 1274.27632812 745.06640625 1274.12890625 C752.55345276 1271.24773922 758.5286389 1265.9139553 764.08248901 1260.26481628 C764.73578599 1259.61267145 765.38908297 1258.96052662 766.06217682 1258.28861982 C768.22686773 1256.12418489 770.38069224 1253.94926432 772.53466797 1251.77416992 C774.09382049 1250.21089247 775.65365332 1248.64829328 777.21411133 1247.08631897 C780.56268923 1243.73166462 783.90651308 1240.37236811 787.24670029 1237.00935936 C792.53536649 1231.68477548 797.83503215 1226.37123064 803.13626099 1221.05915833 C810.5733405 1213.60467851 818.00587701 1206.1456951 825.43408203 1198.68237305 C825.90460547 1198.20962849 826.3751289 1197.73688393 826.85991062 1197.24981377 C828.76598016 1195.33473007 830.67203882 1193.41963555 832.57808232 1191.50452594 C837.81948642 1186.23830763 843.06206055 1180.97325489 848.30517578 1175.70874023 C849.0091788 1175.00185875 849.0091788 1175.00185875 849.7274041 1174.28069683 C857.57667078 1166.39962831 865.43002693 1158.52264344 873.28578675 1150.64804727 C878.54707536 1145.37342189 883.80307498 1140.09360002 889.05488944 1134.80954206 C892.3321961 1131.51404084 895.61367992 1128.22272244 898.89622498 1124.9324398 C900.40921545 1123.41413944 901.92047467 1121.89411144 903.42979813 1120.37216568 C911.29454738 1112.44341098 919.12595284 1104.81015146 928 1098 C928.62322081 1097.51642627 929.24644161 1097.03285254 929.8885479 1096.53462505 C960.30229138 1073.35675686 997.09929262 1061.93872209 1035.32958984 1066.71850586 C1063.18917923 1070.89359217 1089.98682017 1084.40246273 1111 1103 C1111.68034302 1103.59843216 1112.36068604 1104.19686432 1113.06164551 1104.81343079 C1119.21275595 1110.27765785 1125.09562595 1115.97190433 1130.88737869 1121.8122139 C1132.45891618 1123.39678827 1134.03379568 1124.97797746 1135.60946655 1126.55844116 C1138.95084616 1129.91111202 1142.28822861 1133.26774357 1145.625 1136.625 C1149.50525491 1140.52902156 1153.38722112 1144.431311 1157.27344894 1148.32938766 C1158.81083682 1149.8731675 1160.3451379 1151.41996792 1161.87930298 1152.96694946 C1162.83686488 1153.92814922 1163.79457047 1154.88920586 1164.75244141 1155.85009766 C1165.5749942 1156.67788727 1166.397547 1157.50567688 1167.24502563 1158.35855103 C1169.34607852 1160.37302494 1171.46326235 1162.27651481 1173.66892719 1164.16976833 C1177.97010821 1167.9235575 1182.02296519 1171.88320404 1186.05213928 1175.92515564 C1186.82174356 1176.69319993 1187.59134785 1177.46124422 1188.38427347 1178.25256258 C1190.94353316 1180.80785709 1193.49923153 1183.36668285 1196.05493164 1185.92553711 C1197.89674032 1187.76598976 1199.73876145 1189.60622982 1201.58097839 1191.4462738 C1206.05347113 1195.91433434 1210.52327374 1200.38507656 1214.99209792 1204.85680597 C1218.62606815 1208.49304027 1222.26102017 1212.12829043 1225.89666557 1215.76284981 C1226.67465997 1216.54061436 1226.67465997 1216.54061436 1227.46837143 1217.33409132 C1228.52223282 1218.38763296 1229.57609643 1219.44117237 1230.62996226 1220.49470956 C1240.49760968 1230.35950966 1250.3621972 1240.227365 1260.22573065 1250.09627832 C1268.67780524 1258.55282026 1277.13249814 1267.00673702 1285.58911133 1275.45874023 C1295.42420554 1285.28847547 1305.25766589 1295.11984049 1315.08854765 1304.95378882 C1316.13807974 1306.00363944 1317.18761392 1307.05348798 1318.23715019 1308.10333443 C1319.01161196 1308.87802761 1319.01161196 1308.87802761 1319.80171942 1309.66837115 C1323.42941774 1313.29693066 1327.05827052 1316.92433313 1330.6875782 1320.55128288 C1335.57779796 1325.43839515 1340.46534141 1330.32817058 1345.3511219 1335.21972084 C1347.14209434 1337.01201285 1348.93391333 1338.80345941 1350.72665024 1340.59398651 C1353.17837379 1343.04296699 1355.6269796 1345.49502405 1358.07484436 1347.94786072 C1358.78049579 1348.65128143 1359.48614722 1349.35470214 1360.21318203 1350.07943863 C1390.87908754 1380.86580066 1411.26563418 1418.37593218 1411.2487793 1462.57617188 C1410.95099095 1490.90676955 1400.55281337 1517.57000533 1384.8125 1540.875 C1384.40354492 1541.48666016 1383.99458984 1542.09832031 1383.57324219 1542.72851562 C1375.02640506 1555.11022574 1364.49585626 1565.79856883 1353.86328125 1576.3671875 C1352.53016614 1577.69910613 1351.1974253 1579.03139947 1349.86503601 1580.36404419 C1347.09564948 1583.13188104 1344.32298322 1585.89637214 1341.54760742 1588.65820312 C1338.00899195 1592.17975592 1334.47706936 1595.70792998 1330.94735432 1599.23840141 C1328.20486206 1601.98062062 1325.4597632 1604.72021791 1322.71379662 1607.45895767 C1321.41079369 1608.75880417 1320.10837289 1610.0592345 1318.80657387 1611.36028671 C1313.01331679 1617.14657434 1307.25306487 1622.88877984 1301.02046204 1628.20513916 C1296.25218735 1632.44099678 1291.8123687 1637.04510338 1287.30859375 1641.55859375 C1286.19350989 1642.67300218 1285.07827778 1643.78726229 1283.96290588 1644.90138245 C1281.63746238 1647.22536021 1279.31381489 1649.55111464 1276.99145508 1651.87817383 C1274.03412097 1654.84120451 1271.07231872 1657.7997217 1268.10914516 1660.75691128 C1265.80889402 1663.05352632 1263.51105769 1665.35254566 1261.21391487 1667.65226936 C1260.12354703 1668.74329806 1259.0324532 1669.83360177 1257.94058037 1670.92312431 C1252.61106866 1676.24367588 1247.33613142 1681.56602451 1242.46669006 1687.31922913 C1240.88559972 1689.13109836 1239.21660848 1690.81667084 1237.5 1692.5 C1235.1655566 1694.79837033 1232.954274 1697.14614293 1230.8125 1699.625 C1219.46591413 1712.75244016 1207.62962495 1725.21889455 1194 1736 C1192.95195825 1736.86056019 1191.90512103 1737.72258903 1190.859375 1738.5859375 C1142.4256163 1778.17060149 1080.99011294 1793.53391664 1019.4375 1793.3125 C1018.37551392 1793.31067719 1017.31352783 1793.30885437 1016.21936035 1793.30697632 C996.68047876 1793.25098105 977.40466462 1792.25480181 958 1790 C957.26148804 1789.91514343 956.52297607 1789.83028687 955.76208496 1789.74285889 C893.10706391 1782.48985734 832.59697749 1767.1533982 773.03204346 1746.69732666 C771.11968642 1746.04107222 769.20612239 1745.38833806 767.29248047 1744.73583984 C714.24365663 1726.572101 663.27356527 1702.67666738 613 1678 C612.36112854 1677.68657654 611.72225708 1677.37315308 611.06402588 1677.05023193 C596.61212326 1669.95513754 582.31021425 1662.64860704 568.21875 1654.859375 C563.04457163 1652.00585424 557.80963829 1649.27880425 552.5625 1646.5625 C542.27410448 1641.21368709 532.18657385 1635.53871265 522.12207031 1629.78173828 C518.85466629 1627.91705932 515.58024349 1626.06516141 512.3046875 1624.21484375 C496.84152084 1615.45974657 481.58240414 1606.41027838 466.44042969 1597.11132812 C463.0190442 1595.01022631 459.59164713 1592.91909916 456.1640625 1590.828125 C442.96597316 1582.76257255 429.89507998 1574.54122024 417 1566 C416.32352417 1565.55231262 415.64704834 1565.10462524 414.95007324 1564.64337158 C389.37250017 1547.71361346 363.95989538 1530.61576738 339.15625 1512.56347656 C336.98529013 1510.98933401 334.80651629 1509.42666111 332.625 1507.8671875 C322.62348444 1500.70795232 312.80508035 1493.33356495 303.04296875 1485.8515625 C299.2684402 1482.96058598 295.46995173 1480.10521077 291.65234375 1477.27148438 C284.22465652 1471.75609435 277.01696967 1466.01372577 269.86328125 1460.1484375 C266.30296077 1457.23391787 262.69262301 1454.38928205 259.0625 1451.5625 C248.00063293 1442.92602149 237.22389037 1433.93177243 226.53759766 1424.83642578 C223.16518857 1421.9699312 219.75210257 1419.16035649 216.3125 1416.375 C211.91198425 1412.79599877 207.70167479 1409.052077 203.51171875 1405.23046875 C201.00541256 1403.00480649 198.43075607 1400.90478439 195.8125 1398.8125 C189.74392602 1393.90764404 184.11293336 1388.57244999 178.4375 1383.22265625 C175.35560525 1380.3205387 172.20620102 1377.51396639 169 1374.75 C164.79209429 1371.06808251 160.70086516 1367.25422045 156.58984375 1363.46484375 C155.04058621 1362.03739515 153.48924282 1360.61224596 151.9375 1359.1875 C149.2124725 1356.68303721 146.4953484 1354.17018531 143.78222656 1351.65283203 C142.57443496 1350.53272941 141.3654111 1349.4139543 140.15527344 1348.29638672 C129.63248373 1338.56589486 119.44388222 1328.53213536 109.3737793 1318.33691406 C105.26476946 1314.18741492 101.17650764 1310.07109049 96.72265625 1306.28515625 C94.20207792 1304.1316246 91.98965359 1301.93276651 89.84375 1299.40625 C86.62184775 1295.61448749 83.18196168 1292.09949729 79.65625 1288.59375 C79.07939453 1288.02011719 78.50253906 1287.44648437 77.90820312 1286.85546875 C76.10732439 1285.06842772 74.30410419 1283.28378443 72.5 1281.5 C58.626582 1267.78283933 58.626582 1267.78283933 53.33398438 1261.55664062 C51.65491376 1259.59731518 49.85564643 1257.79165862 48 1256 C45.43439162 1253.52286087 43.05515968 1250.94120754 40.71875 1248.25 C37.08361463 1244.06455629 33.31193655 1240.02414745 29.5 1236 C25.09136629 1231.3459372 20.76989159 1226.64082385 16.56738281 1221.79931641 C14.62031046 1219.56412587 12.62505531 1217.37529997 10.625 1215.1875 C7.51471149 1211.74621795 4.53521688 1208.23678702 1.625 1204.625 C-1.61952732 1200.6117345 -4.98749324 1196.77586874 -8.5 1193 C-12.7339621 1188.44405527 -16.72931665 1183.74728841 -20.62890625 1178.90234375 C-23.31830412 1175.61037897 -26.09148901 1172.39975503 -28.875 1169.1875 C-33.38536457 1163.96877231 -37.69839193 1158.6302599 -41.92529297 1153.18041992 C-45.02264038 1149.20169089 -48.22011012 1145.32925109 -51.5 1141.5 C-56.21721369 1135.98599357 -60.7206573 1130.32924781 -65.1796875 1124.60546875 C-68.10452458 1120.85360171 -71.08199143 1117.14518227 -74.0625 1113.4375 C-78.95730723 1107.33435774 -83.76839221 1101.17173869 -88.51123047 1094.94970703 C-90.24395535 1092.68051371 -91.98345983 1090.4165806 -93.72265625 1088.15234375 C-101.23510336 1078.3539741 -108.61105852 1068.47871904 -115.80078125 1058.44140625 C-118.52055454 1054.64977641 -121.29038747 1050.89776316 -124.07397461 1047.15283203 C-132.64471897 1035.61524525 -140.85146164 1023.83832393 -149 1012 C-149.86455811 1010.74654785 -149.86455811 1010.74654785 -150.74658203 1009.46777344 C-178.41257981 969.33705403 -204.67932555 928.2466888 -229 886 C-229.639375 884.89398437 -230.27875 883.78796875 -230.9375 882.6484375 C-240.59959804 865.92847877 -249.98288434 849.07889603 -259 832 C-259.54269531 830.97245605 -260.08539063 829.94491211 -260.64453125 828.88623047 C-264.82075318 820.9536514 -268.92910072 812.98702962 -273 805 C-273.3740094 804.2663623 -273.7480188 803.53272461 -274.13336182 802.77685547 C-285.63449259 780.1936324 -296.77977142 757.50067547 -306.98693848 734.30151367 C-308.06531906 731.85160555 -309.14739427 729.40334642 -310.22949219 726.95507812 C-321.87137182 700.57379978 -332.80442014 673.97296722 -343 647 C-343.26085388 646.31113708 -343.52170776 645.62227417 -343.79046631 644.91253662 C-347.04757585 636.30240854 -350.21410854 627.66175151 -353.29418945 618.9866333 C-353.77921464 617.6214409 -354.26544644 616.25667677 -354.75268555 614.89227295 C-373.89188124 561.2956404 -389.05116386 506.10370443 -396.25 449.5625 C-396.40122314 448.38123535 -396.55244629 447.1999707 -396.70825195 445.98291016 C-399.20594499 425.16363031 -400.33572923 404.39579922 -400.26074219 383.43115234 C-400.24998276 379.86929402 -400.26074279 376.30793742 -400.2734375 372.74609375 C-400.28553208 353.75212985 -399.56420616 334.68088249 -396.25 315.9375 C-396.08153564 314.96329102 -395.91307129 313.98908203 -395.73950195 312.98535156 C-389.56736331 278.79527754 -377.30494572 245.38402624 -357 217 C-356.24203125 215.93136719 -355.4840625 214.86273438 -354.703125 213.76171875 C-344.55250512 199.8856054 -332.97921553 187.68072108 -320.80151367 175.59570312 C-318.30128383 173.11386634 -315.80928585 170.6239833 -313.31835938 168.1328125 C-311.70880603 166.52817155 -310.09879596 164.92398857 -308.48828125 163.3203125 C-307.7547493 162.58789337 -307.02121735 161.85547424 -306.26545715 161.1008606 C-303.04786851 157.9124034 -299.81452184 154.80246184 -296.36425781 151.86645508 C-289.80903839 146.20425771 -283.79956759 139.9429398 -277.68359375 133.81640625 C-276.29946719 132.4329546 -274.91519232 131.04965132 -273.53077698 129.66648865 C-270.64039158 126.77757138 -267.7518066 123.88686924 -264.86450195 120.99487305 C-261.18075955 117.30543392 -257.49254512 113.62050324 -253.8029623 109.93690586 C-250.94683707 107.08441018 -248.09311762 104.22951723 -245.24009895 101.37391472 C-243.88178768 100.01494079 -242.52274547 98.65669701 -241.16293144 97.29922676 C-232.19140082 88.35685424 -232.19140082 88.35685424 -223.71958923 78.94642639 C-219.79128785 74.49992874 -215.51526142 70.37259322 -211.31640625 66.18359375 C-210.29167892 65.15819076 -209.26709989 64.13263954 -208.24266052 63.10694885 C-206.1069957 60.96981937 -203.96955792 58.83448391 -201.83081055 56.70043945 C-199.10991584 53.98524125 -196.3935369 51.26557667 -193.67848301 48.54453945 C-191.56716186 46.42957925 -189.45343325 44.31703793 -187.33900261 42.20518684 C-186.33728909 41.20413337 -185.33629823 40.20235615 -184.336092 39.19979668 C-179.22345521 34.07776893 -174.0824945 29.05598276 -168.57992554 24.35211182 C-166.68473195 22.7301913 -164.88094597 21.01953133 -163.0625 19.3125 C-117.17223018 -21.24351624 -53.68953118 -29.86952791 0 0 Z " fill="#BA9414" transform="translate(406,216)"/>
<path d="M0 0 C11.61073735 0.54327954 22.93731879 2.46791518 34.375 4.4375 C35.90332458 4.69918472 35.90332458 4.69918472 37.46252441 4.96615601 C132.54488726 21.32909449 225.41554847 49.39973178 409 138 C409.56434753 138.32524658 410.12869507 138.65049316 410.71014404 138.9855957 C443.7808516 158.04997987 476.11155585 178.54454376 507 201 C507.74717285 201.54285645 508.4943457 202.08571289 509.26416016 202.64501953 C525.60887421 214.55067688 541.64789506 226.78460326 557.28710938 239.60302734 C559.57033179 241.46514231 561.87780718 243.2958723 564.1875 245.125 C568.5721511 248.61947864 572.84934313 252.23177003 577.11621094 255.86816406 C580.51410682 258.75986314 583.95556435 261.58433099 587.4375 264.375 C593.13065857 269.00277217 598.45042762 273.99391025 603.796875 279.01171875 C606.13613092 281.20460254 608.50452359 283.34831373 610.9375 285.4375 C620.54125499 293.74289326 629.66422272 302.59020175 638.5859375 311.6171875 C641.2794997 314.27588158 644.09608521 316.73471028 646.96875 319.1953125 C652.4010515 324.02170344 657.54331949 329.2134262 662.25 334.75 C665.63032068 338.70980423 669.30243875 342.3404241 673 346 C677.21616666 350.17732059 681.33561026 354.35685757 685.171875 358.890625 C687.16173911 361.18662205 689.22288869 363.40347755 691.296875 365.62329102 C696.34889746 371.03092458 701.15333197 376.5465687 705.7890625 382.3203125 C708.1093495 385.13253315 710.53071134 387.81797263 713 390.5 C717.89374231 395.82974393 722.46107316 401.36770251 727 407 C727.99768805 408.21827563 728.99644911 409.43567307 729.99609375 410.65234375 C737.26845111 419.51912782 744.30999789 428.53676318 751.23291016 437.67822266 C753.11624289 440.1527314 755.01570255 442.61423952 756.91796875 445.07421875 C764.6270784 455.06891589 772.01297607 465.197836 779.0625 475.66796875 C781.5907929 479.42039313 784.21139059 483.09310573 786.875 486.75 C804.87746505 511.66937684 820.75498745 538.33198822 836 565 C836.57073242 565.99580078 837.14146484 566.99160156 837.72949219 568.01757812 C846.63155484 583.59242208 855.0287039 599.40225422 863.16064453 615.38867188 C864.35640453 617.73939063 865.55876402 620.08630527 866.76513672 622.43164062 C876.97375985 642.27870145 886.18726723 662.50043976 895 683 C895.30528625 683.71005188 895.61057251 684.42010376 895.92510986 685.15167236 C927.84608387 759.57931662 950.98953091 837.4037849 966.625 916.8125 C966.79979889 917.69556824 966.97459778 918.57863647 967.1546936 919.48846436 C967.64425973 921.97664593 968.12485253 924.46635808 968.6015625 926.95703125 C968.81635002 928.05083351 968.81635002 928.05083351 969.03547668 929.16673279 C969.78874784 933.17837537 970.0529982 936.92743194 970 941 C950.08615927 944.39198192 930.17199963 947.78208535 910.25745583 951.16993713 C901.01132812 952.74292888 891.7653068 954.31654108 882.51953125 955.89160156 C874.46330347 957.2640155 866.40688069 958.63527792 858.35021913 960.00514317 C854.08214619 960.73088066 849.81417485 961.4572044 845.54643631 962.18490601 C841.53307729 962.8692141 837.51946024 963.55198732 833.50563622 964.23356247 C832.02927505 964.48454121 830.55301069 964.73609008 829.07684898 964.98823929 C827.0678182 965.331324 825.05840984 965.67219554 823.04898071 966.01293945 C821.92254969 966.20467239 820.79611866 966.39640533 819.63555336 966.59394836 C817 967 817 967 815 967 C814.81002441 965.9476416 814.62004883 964.8952832 814.42431641 963.81103516 C804.61054818 909.73710293 791.14460982 856.89420655 773 805 C772.77417236 804.351521 772.54834473 803.70304199 772.31567383 803.03491211 C754.14362746 750.90547009 731.32116475 699.46373895 703.56494141 651.71533203 C701.92781909 648.87475881 700.32524679 646.01688871 698.73046875 643.15234375 C692.37877982 631.75132108 685.7686998 620.59433353 678.69091797 609.62988281 C676.77140801 606.64447113 674.87147827 603.64704794 672.97265625 600.6484375 C671.56531643 598.43215687 670.15776612 596.21600988 668.75 594 C667.7758313 592.46013428 667.7758313 592.46013428 666.78198242 590.88916016 C662.99684731 584.95502961 659.04251723 579.20214502 654.86621094 573.53662109 C652.26700112 570.00368154 649.7622346 566.40745741 647.25 562.8125 C641.34277793 554.40599594 635.21956107 546.17712944 629 538 C628.36263916 537.15791992 628.36263916 537.15791992 627.71240234 536.29882812 C621.16057571 527.64615815 614.35875739 519.21249915 607.48388672 510.81591797 C606.19366805 509.23700279 604.91064412 507.65221373 603.62890625 506.06640625 C594.90873866 495.2981993 585.7967026 484.85507438 576.4140625 474.66015625 C574.50867368 472.56052876 572.63942708 470.44097659 570.78100586 468.30029297 C567.29030598 464.30792256 563.71921682 460.40154432 560.08984375 456.53515625 C559.44796616 455.85123306 558.80608856 455.16730988 558.14476013 454.46266174 C551.43586966 447.34991734 544.56001435 440.40832089 537.63598633 433.50561523 C535.53542896 431.41049908 533.44038126 429.3099769 531.34570312 427.20898438 C529.98209189 425.84603287 528.61817107 424.48339103 527.25390625 423.12109375 C526.33648399 422.20063515 526.33648399 422.20063515 525.40052795 421.26158142 C521.67671603 417.5576092 517.83609364 414.04083692 513.85394287 410.61582947 C510.71243373 407.87780386 507.71149606 404.99127833 504.6875 402.125 C499.48896569 397.23150152 494.18009647 392.5888988 488.59765625 388.1328125 C485.86445114 385.88870725 483.27863407 383.53132247 480.6875 381.125 C476.13510481 376.94014947 471.41540532 373.08939273 466.53051758 369.30810547 C462.74991928 366.38102667 459.02492046 363.39905428 455.33325195 360.3605957 C445.46527113 352.24451673 435.28210045 344.58156471 425 337 C424.25524414 336.44844238 423.51048828 335.89688477 422.74316406 335.32861328 C409.79944462 325.7618957 396.44512577 316.84315096 383 308 C382.24928223 307.50290527 381.49856445 307.00581055 380.72509766 306.49365234 C351.3788795 287.0623585 320.77262133 269.71851957 289.42382812 253.74560547 C287.15732101 252.59004886 284.89295872 251.43027484 282.63085938 250.26611328 C203.32991753 209.47652552 117.42911213 181.65824523 -21 156 C-22.16647801 152.50056597 -21.84109928 150.60425557 -21.32974243 146.96484375 C-21.15586502 145.70293213 -20.98198761 144.44102051 -20.80284119 143.14086914 C-20.60258057 141.73972707 -20.40218226 140.33860467 -20.20166016 138.9375 C-19.99594611 137.46419361 -19.79083684 135.99080266 -19.58628845 134.51733398 C-19.02848665 130.51239457 -18.46199511 126.50872743 -17.89381456 122.50524902 C-17.30106302 118.31925444 -16.71573924 114.13222119 -16.12948608 109.9453125 C-15.14375723 102.91339506 -14.15272156 95.88224195 -13.15820312 88.8515625 C-12.00780177 80.71864917 -10.86417569 72.5848069 -9.72454035 64.45037842 C-8.51225812 55.79761216 -7.29563318 47.145461 -6.07740355 38.49353027 C-5.72619534 35.99739051 -5.37573403 33.50114677 -5.0254097 31.00488281 C-4.47495172 27.08441878 -3.921543 23.16438211 -3.36583138 19.24465942 C-3.16208708 17.80442949 -2.9593056 16.36406297 -2.75754738 14.92355347 C-2.48240663 12.96038352 -2.2034201 10.99775369 -1.92422485 9.03515625 C-1.76898661 7.9356665 -1.61374836 6.83617676 -1.45380592 5.70336914 C-1 3 -1 3 0 0 Z " fill="#BA9414" transform="translate(1039,6)"/>
<path d="M0 0 C2.07330393 0.15134957 4.14643784 0.30502933 6.21949768 0.45968628 C7.95123907 0.58768018 7.95123907 0.58768018 9.71796513 0.71825981 C13.70701222 1.06069215 17.59576635 1.64388054 21.52734375 2.3828125 C22.64236267 2.58490326 22.64236267 2.58490326 23.77990723 2.79107666 C26.1674205 3.22729634 28.55257533 3.6748562 30.9375 4.125 C32.18129929 4.35742401 32.18129929 4.35742401 33.45022583 4.59454346 C127.72701873 22.26094319 216.5833185 59.49459913 320 131 C321.21741121 131.92062145 322.43485746 132.84119658 323.65234375 133.76171875 C338.18022353 144.7977589 352.13345226 156.58981752 365.63671875 168.85546875 C367.25637814 170.32520926 368.88444815 171.78571905 370.51953125 173.23828125 C375.46930156 177.64061153 380.21245076 182.17449107 384.859375 186.89453125 C386.79987179 188.80315857 388.79149234 190.5635393 390.875 192.3125 C394.86246377 195.72919361 398.3465044 199.55371378 401.85400391 203.44750977 C404.7356646 206.64152529 407.68326381 209.73028361 410.75 212.75 C414.71394044 216.67199398 418.38416555 220.75780053 422 225 C423.29164063 226.49273438 423.29164063 226.49273438 424.609375 228.015625 C483.80305882 296.49086242 529.43953933 374.67091334 585 567 C577.82194069 568.93865291 570.57036857 570.18702609 563.24365234 571.43017578 C561.86301974 571.66667122 560.4824311 571.90342347 559.10188293 572.14041138 C555.37323562 572.77959875 551.64392747 573.41484572 547.91443586 574.04908609 C544.79530833 574.57984906 541.67649253 575.11243154 538.55766737 575.64496791 C531.20039423 576.9011334 523.84255886 578.15396632 516.484375 579.40478516 C508.90132122 580.69389664 501.31929993 581.98895591 493.73774946 583.2868768 C487.21671188 584.40300929 480.6950266 585.51529863 474.17281497 586.62454975 C470.28231687 587.28626728 466.39208581 587.94946448 462.50248337 588.61642838 C458.84736511 589.24302562 455.19146109 589.86481697 451.53490257 590.48295212 C449.55793585 590.81836952 447.58180138 591.15868081 445.60569763 591.49914551 C443.83107399 591.79771957 443.83107399 591.79771957 442.02059937 592.10232544 C440.99673819 592.27671206 439.97287701 592.45109867 438.91798973 592.63076973 C435.91387082 593.01089843 433.02473701 593.06468004 430 593 C429.86013672 592.25355225 429.72027344 591.50710449 429.57617188 590.73803711 C419.40829143 536.99294238 402.54494646 486.89711138 378 438 C377.57090332 437.1445459 377.14180664 436.2890918 376.69970703 435.40771484 C359.77099228 401.94067499 338.02477353 370.73151376 314 342 C313.50822266 341.40912598 313.01644531 340.81825195 312.50976562 340.20947266 C301.34619847 326.83629425 289.35125866 314.27657823 277.0625 301.9375 C276.28189209 301.15221924 275.50128418 300.36693848 274.69702148 299.55786133 C270.5076245 295.38009286 266.23300747 291.36776522 261.7487793 287.50805664 C259.57888876 285.63685549 257.47969893 283.69397647 255.375 281.75 C249.74274429 276.66891304 243.79750064 272.04057957 237.80126953 267.40283203 C236.05287896 266.04118223 234.31916696 264.66309942 232.58984375 263.27734375 C166.49638435 210.41780952 86.86160935 175.88289932 -13.00854492 157.15283203 C-13.92224854 157.01216309 -14.83595215 156.87149414 -15.77734375 156.7265625 C-16.57390381 156.60877441 -17.37046387 156.49098633 -18.19116211 156.36962891 C-20 156 -20 156 -21 155 C-20.78956464 146.13835416 -19.29248439 137.27259741 -18.05053711 128.51074219 C-17.85306149 127.10016314 -17.6558808 125.68954277 -17.45896912 124.27888489 C-16.92896434 120.48797178 -16.39488883 116.69764258 -15.86002421 112.90741253 C-15.29974696 108.93195975 -14.74329342 104.95597177 -14.18641663 100.9800415 C-13.13372894 93.46833719 -12.07765334 85.95711335 -11.02032906 78.44606042 C-9.81574272 69.88767097 -8.61498089 61.3287463 -7.41452396 52.76977682 C-4.94724067 35.17925659 -2.47520752 17.58940685 0 0 Z " fill="#BA9414" transform="translate(1018,406)"/>
</svg>
